<svg id="Capa_1" enable-background="new 0 0 512 512" viewBox="0 0 512 512" xmlns="http://www.w3.org/2000/svg"><path d="m160 464c0 26.56 21.44 48 48 48s48-21.44 48-48v-16h-96z"/><path d="m128 0c-34.24 0-66.56 11.84-90.56 33.28-3.52 2.88-5.44 7.36-5.44 11.84v133.76c0 4.48 1.92 8.96 5.44 11.84 31.68 28.16 79.68 39.68 122.56 29.76v195.52h96v-304c0-61.76-57.28-112-128-112zm-47.36 128c-8.832 0-16.16-7.168-16.16-16s7.008-16 15.84-16h.32c8.832 0 16 7.168 16 16s-7.168 16-16 16zm95.36 0c-8.832 0-16-7.168-16-16s-7.168-16-16-16-16-7.168-16-16 7.168-16 16-16c26.464 0 48 21.536 48 48 0 8.832-7.168 16-16 16z"/><path d="m464 224h-16v-16c0-8.832-7.168-16-16-16h-96c-8.832 0-16 7.168-16 16v16h-16c-8.832 0-16 7.168-16 16v256c0 8.832 7.168 16 16 16h160c8.832 0 16-7.168 16-16v-256c0-8.832-7.168-16-16-16zm-16 224h-128v-32h128z"/><g/><g/><g/><g/><g/><g/><g/><g/><g/><g/><g/><g/><g/><g/><g/></svg>