<svg id="Capa_1" enable-background="new 0 0 512 512" viewBox="0 0 512 512" xmlns="http://www.w3.org/2000/svg"><path d="m128 220.48v35.52h96v-144c0-61.76-57.28-112-128-112-34.24 0-66.56 11.84-90.56 33.28-3.52 2.88-5.44 7.36-5.44 11.84v133.76c0 4.48 1.92 8.96 5.44 11.84 31.68 28.16 79.68 39.68 122.56 29.76zm-16-156.48c26.464 0 48 21.536 48 48 0 8.832-7.168 16-16 16s-16-7.168-16-16-7.168-16-16-16-16-7.168-16-16 7.168-16 16-16zm-63.36 64c-8.832 0-16.16-7.168-16.16-16s7.008-16 15.84-16h.32c8.832 0 16 7.168 16 16s-7.168 16-16 16z"/><path d="m506.56 33.28c-24-21.44-56.32-33.28-90.56-33.28-70.72 0-128 50.24-128 112v144h96v-35.52c42.88 9.92 90.88-1.6 122.56-29.76 3.52-2.88 5.44-7.36 5.44-11.84v-133.76c0-4.48-1.92-8.96-5.44-11.84zm-106.56 62.72c-8.832 0-16 7.168-16 16s-7.168 16-16 16-16-7.168-16-16c0-26.464 21.536-48 48-48 8.832 0 16 7.168 16 16s-7.168 16-16 16zm63.36 32c-8.832 0-16-7.168-16-16s7.168-16 16-16h.32c8.832 0 15.84 7.168 15.84 16s-7.328 16-16.16 16z"/><path d="m464 288h-416c-8.832 0-16 7.168-16 16v144c0 35.296 28.704 64 64 64h320c35.296 0 64-28.704 64-64v-144c0-8.832-7.168-16-16-16z"/><g/><g/><g/><g/><g/><g/><g/><g/><g/><g/><g/><g/><g/><g/><g/></svg>