<svg id="Capa_1" enable-background="new 0 0 512.012 512.012" viewBox="0 0 512.012 512.012" xmlns="http://www.w3.org/2000/svg"><path d="m489.598 85.724c24.192-24.192 29.632-57.984 12.16-75.456s-51.264-12.032-75.456 12.16c-18.208 18.208-25.792 41.856-20.96 59.904l-392.224 353.248c-17.472 17.472-17.472 45.824 0 63.328 17.472 17.472 45.824 17.472 63.328 0l352.64-392.48c18.112 5.184 42.08-2.272 60.512-20.704z"/><path d="m82.942 106.396 110.816 123.36 38.304-34.496-125.408-112.96c4.832-18.048-2.72-41.696-20.928-59.904-24.224-24.192-57.984-29.632-75.488-12.16-17.472 17.504-12.032 51.264 12.16 75.488 18.432 18.432 42.4 25.888 60.544 20.672z"/><path d="m498.878 435.58-178.272-160.576-43.104 47.968 158.08 175.936c17.472 17.472 45.824 17.472 63.328 0 17.472-17.504 17.472-45.856-.032-63.328z"/><g/><g/><g/><g/><g/><g/><g/><g/><g/><g/><g/><g/><g/><g/><g/></svg>