<svg id="Capa_1" enable-background="new 0 0 512 512" viewBox="0 0 512 512" xmlns="http://www.w3.org/2000/svg"><path d="m215.996 128c0 1.6.416 3.104.48 4.704l-172.8 209.12c-5.28 6.336-4.8 15.648 1.024 21.504l48 48c3.104 3.072 7.2 4.672 11.296 4.672 3.424 0 6.848-1.088 9.728-3.328l102.272-78.432v145.76h-48c-8.832 0-16 7.168-16 16s7.168 16 16 16h128c8.832 0 16-7.168 16-16s-7.168-16-16-16h-48v-170.304l72.992-56c7.488 1.344 15.136 2.304 23.008 2.304 29.536 0 56.416-10.464 78.08-27.296l-178.784-178.784c-16.832 21.696-27.296 48.576-27.296 78.08z"/><path d="m343.996 0c-29.504 0-56.384 10.464-78.08 27.296l178.784 178.784c16.832-21.696 27.296-48.576 27.296-78.08 0-70.592-57.408-128-128-128z"/><g/><g/><g/><g/><g/><g/><g/><g/><g/><g/><g/><g/><g/><g/><g/></svg>