<svg id="Capa_1" enable-background="new 0 0 512 512" viewBox="0 0 512 512" xmlns="http://www.w3.org/2000/svg"><path d="m0 112v288c0 8.832 7.168 16 16 16h48v-320h-48c-8.832 0-16 7.168-16 16z"/><path d="m496 96h-48v320h48c8.832 0 16-7.168 16-16v-288c0-8.832-7.168-16-16-16z"/><path d="m400 32h-288c-8.832 0-16 7.168-16 16v416c0 8.832 7.168 16 16 16h288c8.832 0 16-7.168 16-16v-416c0-8.832-7.168-16-16-16zm-64 190.016c-8.832 0-16-7.168-16-16 0-21.376-17.504-33.6-32-40.032v170.016c0 26.912-28.096 48-64 48s-64-21.088-64-48 28.096-48 64-48c11.808 0 22.592 2.464 32 6.464v-150.464c0-4.768 2.112-9.28 5.792-12.32s8.512-4.32 13.184-3.392c26.656 4.992 77.024 27.68 77.024 77.728 0 8.832-7.168 16-16 16z"/><g/><g/><g/><g/><g/><g/><g/><g/><g/><g/><g/><g/><g/><g/><g/></svg>