<svg id="Capa_1" enable-background="new 0 0 512 512" viewBox="0 0 512 512" xmlns="http://www.w3.org/2000/svg"><path d="m288.058 0h-256c-17.632 0-32 14.368-32 32v448c0 17.664 14.368 32 32 32h256c17.664 0 32-14.336 32-32v-448c0-17.632-14.336-32-32-32zm0 416h-256v-352h256z"/><path d="m128.058 384c35.904 0 64-21.088 64-48v-170.048c14.496 6.464 32 18.656 32 40.032 0 8.832 7.168 16 16 16s16-7.136 16-15.968c0-50.048-50.368-72.736-77.024-77.728-4.672-.864-9.536.352-13.184 3.392s-5.792 7.552-5.792 12.32v150.464c-9.408-4-20.192-6.464-32-6.464-35.904 0-64 21.088-64 48s28.096 48 64 48z"/><path d="m437.082 74.976c-6.24-6.24-16.384-6.24-22.624 0s-6.24 16.384 0 22.624c87.328 87.328 87.328 229.44 0 316.8-6.24 6.24-6.24 16.384 0 22.624 3.136 3.136 7.232 4.672 11.328 4.672s8.192-1.568 11.328-4.672c99.776-99.84 99.776-262.24-.032-362.048z"/><path d="m391.802 120.224c-6.24-6.24-16.384-6.24-22.624 0s-6.24 16.384 0 22.624c30.208 30.24 46.88 70.432 46.88 113.152s-16.672 82.912-46.88 113.12c-6.24 6.24-6.24 16.384 0 22.624 3.136 3.136 7.232 4.672 11.328 4.672s8.192-1.568 11.328-4.672c36.256-36.256 56.224-84.448 56.224-135.744s-19.968-99.488-56.256-135.776z"/><g/><g/><g/><g/><g/><g/><g/><g/><g/><g/><g/><g/><g/><g/><g/></svg>