<svg id="Capa_1" enable-background="new 0 0 512 512" viewBox="0 0 512 512" xmlns="http://www.w3.org/2000/svg"><path d="m240 192c35.296 0 64-28.704 64-64v-64c0-35.296-28.704-64-64-64s-64 28.704-64 64v64c0 35.296 28.704 64 64 64z"/><path d="m368 112c0-8.832-7.168-16-16-16s-16 7.168-16 16v16c0 52.928-43.072 96-96 96s-96-43.072-96-96v-16c0-8.832-7.168-16-16-16s-16 7.168-16 16v16c0 65.088 49.024 118.4 112 126.368v49.632c0 8.832 7.168 16 16 16s16-7.168 16-16v-49.632c62.976-7.968 112-61.28 112-126.368z"/><path d="m128 352c-26.464 0-48 21.536-48 48v64c0 26.464 21.536 48 48 48s48-21.536 48-48v-64c0-26.464-21.536-48-48-48zm16 112c0 8.8-7.168 16-16 16s-16-7.2-16-16v-64c0-8.8 7.168-16 16-16s16 7.2 16 16z"/><path d="m288 384c8.832 0 16-7.168 16-16s-7.168-16-16-16h-64c-8.832 0-16 7.168-16 16v128c0 8.832 7.168 16 16 16s16-7.168 16-16v-48h48c8.832 0 16-7.168 16-16s-7.168-16-16-16h-48v-32z"/><path d="m416 416h-48v-32h48c8.832 0 16-7.168 16-16s-7.168-16-16-16h-64c-8.832 0-16 7.168-16 16v128c0 8.832 7.168 16 16 16s16-7.168 16-16v-48h48c8.832 0 16-7.168 16-16s-7.168-16-16-16z"/><g/><g/><g/><g/><g/><g/><g/><g/><g/><g/><g/><g/><g/><g/><g/></svg>