<svg id="Capa_1" enable-background="new 0 0 511.976 511.976" viewBox="0 0 511.976 511.976" xmlns="http://www.w3.org/2000/svg"><path d="m508.784 118.388c-5.344-7.104-15.36-8.512-22.4-3.2l-219.84 164.864c-7.616-5.088-16.736-8.064-26.56-8.064-26.464 0-48 21.536-48 48s21.536 48 48 48 48-21.536 48-48c0-4.992-.992-9.696-2.4-14.208l220-164.992c7.072-5.312 8.48-15.328 3.2-22.4z"/><path d="m375.664 299.764c-4.864-7.456-14.784-9.504-22.144-4.704-7.392 4.8-9.504 14.688-4.704 22.144l53.728 82.784h-357.088l178.528-274.624 54.72 84.288c4.8 7.424 14.784 9.472 22.144 4.704 7.392-4.8 9.504-14.72 4.672-22.144l-68.128-104.96c-2.944-4.512-8-7.264-13.408-7.264s-10.464 2.72-13.408 7.296l-208 320c-3.2 4.896-3.424 11.2-.64 16.352s8.16 8.352 14.048 8.352h416c5.888 0 11.264-3.232 14.048-8.384 2.784-5.12 2.56-11.392-.64-16.352z"/><g/><g/><g/><g/><g/><g/><g/><g/><g/><g/><g/><g/><g/><g/><g/></svg>