<svg id="Capa_1" enable-background="new 0 0 512 512" viewBox="0 0 512 512" xmlns="http://www.w3.org/2000/svg"><path d="m480 64h-448c-17.632 0-32 14.368-32 32v320c0 17.664 14.368 32 32 32h448c17.664 0 32-14.336 32-32v-320c0-17.632-14.336-32-32-32zm-288 320c-70.592 0-128-57.408-128-128s57.408-128 128-128 128 57.408 128 128-57.408 128-128 128zm256-144c0 8.832-7.168 16-16 16h-16v64c0 5.024-2.368 9.792-6.4 12.8l-64 48c-2.88 2.144-6.24 3.2-9.6 3.2-4.832 0-9.664-2.208-12.8-6.4-5.28-7.072-3.84-17.088 3.232-22.4l57.568-43.2v-56h-16c-8.832 0-16-7.168-16-16v-96c0-8.832 7.168-16 16-16h64c8.832 0 16 7.168 16 16z"/><path d="m192 160c-8.832 0-16 7.168-16 16s7.168 16 16 16c35.296 0 64 28.704 64 64 0 8.832 7.168 16 16 16s16-7.168 16-16c0-52.928-43.072-96-96-96z"/><path d="m192 320c-35.296 0-64-28.704-64-64 0-8.832-7.168-16-16-16s-16 7.168-16 16c0 52.928 43.072 96 96 96 8.832 0 16-7.168 16-16s-7.168-16-16-16z"/><g/><g/><g/><g/><g/><g/><g/><g/><g/><g/><g/><g/><g/><g/><g/></svg>