<svg id="Capa_1" enable-background="new 0 0 511.992 511.992" viewBox="0 0 511.992 511.992" xmlns="http://www.w3.org/2000/svg"><path d="m449.952 14.04c-18.688-18.72-49.184-18.72-67.872 0l-101.824 101.856-11.328-11.328c-6.24-6.24-16.384-6.24-22.624 0l-90.528 90.496c-14.688 14.72-17.408 36.48-8.992 54.272l-24.928 24.928c-12.48 12.48-12.48 32.768 0 45.248l.448.48-53.216 57.92c-.48.512-.928 1.056-1.312 1.632-12.768 14.336-19.776 32.896-19.776 52.448 0 44.128 35.904 80 80 80 23.072 0 44.992-9.984 60.256-27.36.128-.16.256-.288.384-.448l126.656-147.168c.576-.48 1.056-.992 1.568-1.536 8.864-9.824 21.664-15.488 35.136-15.488 26.464 0 48 21.536 48 48 0 12-4.32 23.328-11.904 31.776-.256.224-.512.48-.736.704l-4.544 4.64c-.64.64-1.152 1.28-1.664 2.016l-72.832 77.952c-6.016 6.464-5.696 16.608.736 22.624 3.104 2.848 7.04 4.288 10.944 4.288 4.288 0 8.544-1.728 11.68-5.056l77.376-82.816 1.28-1.312c13.984-14.784 21.664-34.24 21.664-54.816 0-44.128-35.872-80-80-80-22.496 0-43.936 9.472-58.816 26.016-.672.544-1.28 1.152-1.856 1.824l-126.528 146.976c-.096.128-.224.256-.32.384-9.312 10.816-22.272 16.8-36.48 16.8-26.464 0-48-21.536-48-48 0-12.16 4.48-23.584 12.608-32.224.544-.576.992-1.12 1.408-1.76l51.008-55.52c6.176 5.92 14.112 8.992 22.08 8.992 8.192 0 16.384-3.104 22.624-9.344l24.672-24.672c6.368 3.04 13.312 4.8 20.576 4.8 12.8 0 24.864-4.992 33.952-14.048l90.528-90.528c6.24-6.24 6.24-16.384 0-22.624l-11.328-11.328 101.824-101.824c18.72-18.688 18.72-49.152 0-67.872z"/><g/><g/><g/><g/><g/><g/><g/><g/><g/><g/><g/><g/><g/><g/><g/></svg>