<svg id="Capa_1" enable-background="new 0 0 480 480" viewBox="0 0 480 480" xmlns="http://www.w3.org/2000/svg"><path d="m448 16h-416c-17.632 0-32 14.368-32 32v176h96c6.048 0 11.584 3.424 14.304 8.832l15.584 31.2 35.104-93.664c2.368-6.208 8.288-10.336 14.944-10.368 7.136.448 12.64 4.064 15.008 10.24l60.96 158.496 52.48-236.224c1.504-6.72 7.136-11.744 14.016-12.448 6.88-.64 13.408 3.136 16.224 9.408l59.776 134.528h85.6v-176c0-17.632-14.336-32-32-32z"/><path d="m369.376 246.528-44.288-99.648-53.472 240.608c-1.536 6.912-7.392 11.968-14.432 12.512-.416 0-.8 0-1.184 0-6.592 0-12.544-4.032-14.944-10.24l-64.864-168.704-33.216 88.576c-2.24 5.952-7.808 10.016-14.144 10.336-6.272.864-12.32-3.136-15.168-8.8l-27.552-55.168h-86.112v176c0 17.664 14.368 32 32 32h416c17.664 0 32-14.336 32-32v-176h-96c-6.304 0-12.064-3.712-14.624-9.472z"/><g/><g/><g/><g/><g/><g/><g/><g/><g/><g/><g/><g/><g/><g/><g/></svg>