<svg id="Capa_1" enable-background="new 0 0 511.2 511.2" viewBox="0 0 511.2 511.2" xmlns="http://www.w3.org/2000/svg"><path d="m85.824 269.248-45.792-45.792c-22.24 26.688-36.704 60.032-40.032 96.544h64.8c2.752-18.88 10.048-36.128 21.024-50.752z"/><path d="m264.576 402.752 45.76 45.76c22.24-26.688 36.704-60 40.032-96.544h-64.8c-2.72 18.912-10.016 36.16-20.992 50.784z"/><path d="m511.2 90.528-22.624-67.872-67.872-22.656v45.248l-16.8 16.8-9.376-9.376c-6.24-6.24-16.384-6.24-22.624 0s-6.24 16.384 0 22.624l9.376 9.376-106.432 106.4c-24.192-16.672-52.832-27.008-83.648-29.824v64.384c48.864 7.072 87.296 45.504 94.368 94.368h64.384c-2.816-30.816-13.152-59.456-29.856-83.648l106.4-106.4 9.376 9.376c3.136 3.104 7.232 4.672 11.328 4.672s8.192-1.568 11.328-4.672c6.24-6.24 6.24-16.384 0-22.624l-9.376-9.376 16.8-16.8z"/><path d="m64.832 352h-64.832c3.328 36.512 17.76 69.856 40.032 96.544l45.76-45.76c-10.944-14.656-18.24-31.904-20.96-50.784z"/><path d="m62.656 471.168c26.688 22.24 60.032 36.704 96.544 40.032v-64.8c-18.88-2.752-36.128-10.048-50.752-20.992z"/><path d="m159.2 225.632v-64.832c-36.512 3.328-69.856 17.792-96.544 40.032l45.792 45.792c14.624-10.976 31.872-18.272 50.752-20.992z"/><path d="m191.2 446.368v64.8c36.512-3.328 69.856-17.76 96.544-40.032l-45.792-45.792c-14.624 11.008-31.872 18.304-50.752 21.024z"/><path d="m186.528 356.672-32-32c-6.24-6.24-16.384-6.24-22.624 0s-6.24 16.384 0 22.624l32 32c3.104 3.136 7.2 4.704 11.296 4.704s8.192-1.568 11.328-4.672c6.24-6.272 6.24-16.384 0-22.656z"/><g/><g/><g/><g/><g/><g/><g/><g/><g/><g/><g/><g/><g/><g/><g/></svg>