<svg id="Capa_1" enable-background="new 0 0 512 512" viewBox="0 0 512 512" xmlns="http://www.w3.org/2000/svg"><path d="m0 464c0 17.6 14.4 32 32 32h448c17.6 0 32-14.4 32-32v-224h-512zm368-160c44.128 0 80 35.872 80 80s-35.872 80-80 80-80-35.872-80-80 35.872-80 80-80zm-224 0c44.096 0 80 35.872 80 80s-35.904 80-80 80-80-35.872-80-80 35.904-80 80-80z"/><path d="m480 112h-32v-32c0-35.296-28.704-64-64-64h-256c-35.296 0-64 28.704-64 64v32h-32c-17.6 0-32 14.4-32 32v64h512v-64c0-17.6-14.4-32-32-32zm-368 64c-8.832 0-16-7.168-16-16s7.168-16 16-16 16 7.168 16 16-7.168 16-16 16zm64 0c-8.832 0-16-7.168-16-16s7.168-16 16-16 16 7.168 16 16-7.168 16-16 16zm160 0c-8.832 0-16-7.168-16-16s7.168-16 16-16 16 7.168 16 16-7.168 16-16 16zm64 0c-8.832 0-16-7.168-16-16s7.168-16 16-16 16 7.168 16 16-7.168 16-16 16zm16-64h-320v-32c0-17.632 14.368-32 32-32h256c17.664 0 32 14.368 32 32z"/><g/><g/><g/><g/><g/><g/><g/><g/><g/><g/><g/><g/><g/><g/><g/></svg>