<svg id="Capa_1" enable-background="new 0 0 512 512" viewBox="0 0 512 512" xmlns="http://www.w3.org/2000/svg"><path d="m480 80h-448c-17.632 0-32 14.368-32 32v288c0 17.664 14.368 32 32 32h96l64-64h128l64 64h96c17.664 0 32-14.336 32-32v-288c0-17.632-14.336-32-32-32zm-128 192h-192c-35.296 0-64-28.704-64-64s28.704-64 64-64h192c35.296 0 64 28.704 64 64s-28.704 64-64 64z"/><path d="m214.816 176c5.632 9.44 9.184 20.224 9.184 32s-3.552 22.56-9.184 32h82.368c-5.632-9.44-9.184-20.224-9.184-32s3.552-22.56 9.184-32z"/><circle cx="352" cy="208" r="32"/><circle cx="160" cy="208" r="32"/><g/><g/><g/><g/><g/><g/><g/><g/><g/><g/><g/><g/><g/><g/><g/></svg>