<svg id="Capa_1" enable-background="new 0 0 512 512" viewBox="0 0 512 512" xmlns="http://www.w3.org/2000/svg"><path d="m0 32v448c0 17.664 14.368 32 32 32h32v-512h-32c-17.632 0-32 14.368-32 32z"/><path d="m480 0h-384v512h384c17.664 0 32-14.336 32-32v-448c0-17.632-14.336-32-32-32zm-192 416c-88.224 0-160-71.776-160-160s71.776-160 160-160 160 71.776 160 160-71.776 160-160 160z"/><path d="m288 160c-8.832 0-16 7.168-16 16s7.168 16 16 16c35.296 0 64 28.704 64 64 0 8.832 7.168 16 16 16s16-7.168 16-16c0-52.928-43.072-96-96-96z"/><circle cx="288" cy="256" r="32"/><g/><g/><g/><g/><g/><g/><g/><g/><g/><g/><g/><g/><g/><g/><g/></svg>