<svg id="Capa_1" enable-background="new 0 0 512 512" viewBox="0 0 512 512" xmlns="http://www.w3.org/2000/svg"><path d="m396.864 128.032c-14.912-74.016-79.776-128.032-156.864-128.032-66.304 0-125.056 40.448-148.864 101.536-53.312 16.064-91.136 66.176-91.136 122.464 0 70.592 57.408 128 128 128v-80c0-22.784 16.224-42.592 38.56-47.072l160.032-32c14.272-2.72 28.64.864 39.648 9.792l.288.224c11.104 9.184 17.472 22.688 17.472 37.056v112h16c61.76 0 112-50.24 112-112 0-62.752-52.704-113.664-115.136-111.968z"/><path d="m332.864 224.32-160 32c-7.488 1.504-12.864 8.064-12.864 15.68v150.464c-9.408-4-20.192-6.464-32-6.464-35.904 0-64 21.088-64 48s28.096 48 64 48 64-21.088 64-48v-114.88l128-25.6v66.976c-9.408-4.032-20.192-6.496-32-6.496-35.904 0-64 21.088-64 48s28.096 48 64 48c35.872 0 64-21.088 64-48v-192c0-4.8-2.144-9.344-5.856-12.384-3.712-2.976-8.512-4.224-13.28-3.296zm-12.864 66.56-128 25.6v-31.36l128-25.6z"/><g/><g/><g/><g/><g/><g/><g/><g/><g/><g/><g/><g/><g/><g/><g/></svg>