<svg id="Capa_1" enable-background="new 0 0 512 512" viewBox="0 0 512 512" xmlns="http://www.w3.org/2000/svg"><path d="m256 0c-141.152 0-256 114.848-256 256s114.848 256 256 256 256-114.848 256-256-114.848-256-256-256zm0 416c-88.224 0-160-71.776-160-160 0-8.832 7.168-16 16-16s16 7.168 16 16c0 70.592 57.408 128 128 128 8.832 0 16 7.168 16 16s-7.168 16-16 16zm0-112c-26.496 0-48-21.504-48-48s21.504-48 48-48 48 21.504 48 48-21.504 48-48 48zm144-32c-8.832 0-16-7.168-16-16 0-70.592-57.408-128-128-128-8.832 0-16-7.168-16-16s7.168-16 16-16c88.224 0 160 71.776 160 160 0 8.832-7.168 16-16 16z"/><g/><g/><g/><g/><g/><g/><g/><g/><g/><g/><g/><g/><g/><g/><g/></svg>