<svg id="Capa_1" enable-background="new 0 0 512.013 512.013" viewBox="0 0 512.013 512.013" xmlns="http://www.w3.org/2000/svg"><path d="m336.007 160.01c26.464 0 48-21.536 48-48 0-3.264-.352-6.464-.96-9.568l121.184-72.704c7.584-4.544 10.048-14.368 5.504-21.952-4.544-7.584-14.432-10.016-21.952-5.472l-121.408 72.864c-8.32-6.88-18.784-11.168-30.368-11.168-26.464 0-48 21.536-48 48s21.536 48 48 48z"/><path d="m7.783 29.738 121.184 72.704c-.608 3.104-.96 6.304-.96 9.568 0 26.464 21.536 48 48 48s48-21.536 48-48-21.536-48-48-48c-11.584 0-22.048 4.288-30.368 11.136l-121.408-72.864c-7.584-4.544-17.408-2.08-21.952 5.504-4.544 7.552-2.08 17.408 5.504 21.952z"/><path d="m496.007 288.01c8.832 0 16-7.168 16-16v-64c0-8.832-7.168-16-16-16h-480c-8.832 0-16 7.168-16 16v64c0 8.832 7.168 16 16 16h16v192h-16c-8.832 0-16 7.168-16 16s7.168 16 16 16h480c8.832 0 16-7.168 16-16s-7.168-16-16-16h-16v-192zm-128 87.36v104.64h-32v-105.376l-80-80-80 80v105.376h-32v-104.64l-101.92-87.36h49.152l67.904 58.208 58.24-58.208h77.248l58.208 58.208 67.936-58.208h49.152z"/><g/><g/><g/><g/><g/><g/><g/><g/><g/><g/><g/><g/><g/><g/><g/></svg>