<svg id="Capa_1" enable-background="new 0 0 512.027 512.027" viewBox="0 0 512.027 512.027" xmlns="http://www.w3.org/2000/svg"><path d="m507.347 49.954-45.248-45.248c-6.24-6.24-16.384-6.24-22.624 0l-45.248 45.248c-6.24 6.24-6.24 16.384 0 22.624l-112.288 112.224-59.488-93.248c-3.488-5.472-9.952-8.32-16.384-7.136-6.4 1.184-11.424 6.144-12.768 12.512l-21.728 105.088-162.336 75.968c-5.888 2.752-9.536 8.832-9.216 15.36.352 6.496 4.64 12.16 10.816 14.24l144.256 49.312 49.312 144.288c2.112 6.144 7.744 10.432 14.272 10.784.288.032.576.032.864.032 6.176 0 11.84-3.552 14.496-9.216l76.448-163.328 95.872-31.776c5.952-1.984 10.144-7.2 10.88-13.408.672-6.176-2.272-12.224-7.616-15.456l-81.664-49.44 111.52-111.52c6.24 6.24 16.384 6.24 22.624 0l45.248-45.248c6.24-6.272 6.24-16.416 0-22.656zm-272 281.376c-3.136 3.104-7.232 4.672-11.328 4.672s-8.192-1.568-11.328-4.672l-32-32c-6.24-6.24-6.24-16.384 0-22.624s16.384-6.24 22.624 0l32 32c6.272 6.24 6.272 16.352.032 22.624z"/><g/><g/><g/><g/><g/><g/><g/><g/><g/><g/><g/><g/><g/><g/><g/></svg>