<svg id="Capa_1" enable-background="new 0 0 512 512" viewBox="0 0 512 512" xmlns="http://www.w3.org/2000/svg"><path d="m176 256c-38.624 0-70.944-27.52-78.368-64h-97.632v128h257.632c7.424-36.48 39.712-64 78.368-64s70.944 27.52 78.368 64h97.632v-128h-257.632c-7.424 36.48-39.744 64-78.368 64z"/><path d="m336 416c-38.656 0-70.944-27.52-78.368-64h-257.632v96c0 17.664 14.368 32 32 32h448c17.664 0 32-14.336 32-32v-96h-97.632c-7.424 36.48-39.712 64-78.368 64z"/><path d="m480 32h-448c-17.632 0-32 14.368-32 32v96h97.632c7.424-36.48 39.744-64 78.368-64s70.944 27.52 78.368 64h257.632v-96c0-17.632-14.336-32-32-32z"/><circle cx="176" cy="176" r="48"/><circle cx="336" cy="336" r="48"/><g/><g/><g/><g/><g/><g/><g/><g/><g/><g/><g/><g/><g/><g/><g/></svg>