<svg id="Capa_1" enable-background="new 0 0 512 512" viewBox="0 0 512 512" xmlns="http://www.w3.org/2000/svg"><path d="m16 128h16v32h448v-32h16c8.832 0 16-7.168 16-16 0-61.76-50.24-112-112-112-8.832 0-16 7.168-16 16v16h-256v-16c0-8.832-7.168-16-16-16-61.76 0-112 50.24-112 112 0 8.832 7.168 16 16 16zm400-94.4c31.328 6.4 56 31.104 62.4 62.4h-62.4zm-95.68 62.4h.32c8.832 0 16 7.168 16 16s-7.168 16-16 16-16.16-7.168-16.16-16 6.976-16 15.84-16zm-64 0h.32c8.832 0 16 7.168 16 16s-7.168 16-16 16-16.16-7.168-16.16-16 7.008-16 15.84-16zm-64 0h.32c8.832 0 16 7.168 16 16s-7.168 16-16 16-16.16-7.168-16.16-16 7.008-16 15.84-16zm-96.32-62.4v62.4h-62.4c6.4-31.296 31.104-56 62.4-62.4z"/><path d="m496 384h-16v-192h-448v192h-16c-8.832 0-16 7.168-16 16 0 61.76 50.24 112 112 112 8.832 0 16-7.168 16-16v-16h256v16c0 8.832 7.168 16 16 16 61.76 0 112-50.24 112-112 0-8.832-7.168-16-16-16zm-400 94.4c-31.296-6.4-56-31.104-62.4-62.4h62.4zm160-62.4c-52.928 0-96-43.072-96-96s43.072-96 96-96 96 43.072 96 96-43.072 96-96 96zm160 62.4v-62.4h62.4c-6.4 31.328-31.072 56-62.4 62.4z"/><g/><g/><g/><g/><g/><g/><g/><g/><g/><g/><g/><g/><g/><g/><g/></svg>