<svg id="Capa_1" enable-background="new 0 0 512 512" viewBox="0 0 512 512" xmlns="http://www.w3.org/2000/svg"><path d="m507.328 49.94-45.248-45.248c-6.24-6.24-16.384-6.24-22.624 0l-45.248 45.248c-6.24 6.24-6.24 16.384 0 22.624l-95.296 95.264c-.768-.768-1.632-1.472-2.528-2.08-47.616-30.72-100.096-30.752-130.656-.224-15.2 14.944-23.072 35.872-22.88 59.552-43.04-8.832-83.36 1.28-110.912 28.832-20.608 20.448-31.936 49.28-31.936 81.152 0 43.232 19.904 87.84 54.592 122.304 34.528 34.72 79.104 54.624 122.304 54.624h.032c31.872 0 60.672-11.328 81.088-31.872 27.584-27.584 37.76-67.84 28.864-110.944 22.784.672 44.608-7.648 59.424-22.848 30.624-30.624 30.592-83.136-.096-130.688-.576-.928-1.28-1.792-2.08-2.56l95.264-95.264c6.24 6.24 16.384 6.24 22.624 0l45.248-45.248c6.304-6.24 6.304-16.384.064-22.624zm-368 377.376c-3.136 3.104-7.232 4.672-11.328 4.672s-8.192-1.568-11.328-4.672l-32-32c-6.24-6.24-6.24-16.384 0-22.624s16.384-6.24 22.624 0l32 32c6.272 6.24 6.272 16.352.032 22.624zm52.672-59.328c-26.464 0-48-21.536-48-48s21.536-48 48-48 48 21.536 48 48-21.536 48-48 48z"/><g/><g/><g/><g/><g/><g/><g/><g/><g/><g/><g/><g/><g/><g/><g/></svg>