<svg id="Capa_1" enable-background="new 0 0 512 512" viewBox="0 0 512 512" xmlns="http://www.w3.org/2000/svg"><path d="m480 288v-32c0-123.52-100.512-224-224-224-123.52 0-224 100.48-224 224v32c-17.632 0-32 14.336-32 32v128c0 17.664 14.368 32 32 32h64c17.632 0 32-14.336 32-32v-128c0-17.664-14.368-32-32-32v-32c0-88.224 71.776-160 160-160s160 71.776 160 160v32c-17.664 0-32 14.336-32 32v128c0 17.664 14.336 32 32 32h64c17.664 0 32-14.336 32-32v-128c0-17.664-14.336-32-32-32z"/><g/><g/><g/><g/><g/><g/><g/><g/><g/><g/><g/><g/><g/><g/><g/></svg>