<svg id="Capa_1" enable-background="new 0 0 512 512" viewBox="0 0 512 512" xmlns="http://www.w3.org/2000/svg"><path d="m240 464c0 26.56 21.44 48 48 48s48-21.44 48-48v-16h-96z"/><path d="m458.56 33.28c-24-21.44-56.32-33.28-90.56-33.28-70.72 0-128 50.24-128 112v304h96v-195.52c42.88 9.92 90.88-1.6 122.56-29.76 3.52-2.88 5.44-7.36 5.44-11.84v-133.76c0-4.48-1.92-8.96-5.44-11.84zm-106.56 62.72c-8.832 0-16 7.168-16 16s-7.168 16-16 16-16-7.168-16-16c0-26.464 21.536-48 48-48 8.832 0 16 7.168 16 16s-7.168 16-16 16zm63.36 32c-8.832 0-16-7.168-16-16s7.168-16 16-16h.32c8.832 0 15.84 7.168 15.84 16s-7.328 16-16.16 16z"/><path d="m128 384h-48v-112c0-8.832-7.168-16-16-16s-16 7.168-16 16v128c0 8.832 7.168 16 16 16h64c8.832 0 16-7.168 16-16s-7.168-16-16-16z"/><g/><g/><g/><g/><g/><g/><g/><g/><g/><g/><g/><g/><g/><g/><g/></svg>