<svg id="Capa_1" enable-background="new 0 0 512 512" viewBox="0 0 512 512" xmlns="http://www.w3.org/2000/svg"><path d="m395.328 139.328c-6.24 6.24-16.384 6.24-22.624 0l-20.704-20.704-20.672 20.672c-6.24 6.24-16.384 6.24-22.624 0l-20.704-20.672-27.072 27.072c9.056 33.376 31.008 60 59.072 71.712v262.592c0 17.664 14.336 32 32 32s32-14.336 32-32v-262.592c28.064-11.744 50.016-38.336 59.072-71.712l-27.072-27.072z"/><path d="m299.328 84.672 20.672 20.704 20.672-20.672c6.24-6.24 16.384-6.24 22.624 0l20.704 20.672 20.672-20.672c6.24-6.24 16.384-6.24 22.624 0l20.064 20.064c-3.264-58.432-44.48-104.768-95.36-104.768s-92.096 46.336-95.36 104.736l20.064-20.064c6.24-6.24 16.352-6.24 22.624 0z"/><path d="m116.672 372.672c6.24-6.24 16.384-6.24 22.624 0l20.704 20.704 20.672-20.672c6.24-6.24 16.384-6.24 22.624 0l20.704 20.672 27.072-27.072c-9.056-33.376-31.008-60-59.072-71.712v-262.592c0-17.664-14.336-32-32-32s-32 14.336-32 32v262.592c-28.064 11.744-50.016 38.336-59.072 71.712l27.072 27.072z"/><path d="m212.672 427.328-20.672-20.704-20.672 20.672c-6.24 6.24-16.384 6.24-22.624 0l-20.704-20.672-20.672 20.672c-6.24 6.24-16.384 6.24-22.624 0l-20.064-20.032c3.264 58.4 44.48 104.736 95.36 104.736s92.096-46.336 95.36-104.736l-20.064 20.064c-6.24 6.24-16.352 6.24-22.624 0z"/><g/><g/><g/><g/><g/><g/><g/><g/><g/><g/><g/><g/><g/><g/><g/></svg>