<svg id="Capa_1" enable-background="new 0 0 512 512" viewBox="0 0 512 512" xmlns="http://www.w3.org/2000/svg"><path d="m480 0h-64c-8.832 0-16 7.168-16 16v480c0 8.832 7.168 16 16 16h64c8.832 0 16-7.168 16-16v-480c0-8.832-7.168-16-16-16z"/><path d="m32 160c-8.832 0-16 7.168-16 16v160c0 8.832 7.168 16 16 16h60.96l19.04 7.616v104.384c0 8.832 7.168 16 16 16h128c8.832 0 16-7.168 16-16v-40.384l96 38.4v-412.064l-275.072 110.048zm208 288h-96v-75.584l96 38.4z"/><g/><g/><g/><g/><g/><g/><g/><g/><g/><g/><g/><g/><g/><g/><g/></svg>