<svg id="Capa_1" enable-background="new 0 0 512 512" viewBox="0 0 512 512" xmlns="http://www.w3.org/2000/svg"><path d="m288 32h-256c-17.632 0-32 14.368-32 32v384c0 17.664 14.368 32 32 32h256c17.664 0 32-14.336 32-32v-384c0-17.632-14.336-32-32-32zm-48 190.016c-8.832 0-16-7.168-16-16 0-21.376-17.504-33.6-32-40.032v170.016c0 26.912-28.096 48-64 48s-64-21.088-64-48 28.096-48 64-48c11.808 0 22.592 2.464 32 6.464v-150.464c0-4.768 2.112-9.28 5.792-12.32s8.512-4.32 13.184-3.392c26.624 4.992 77.024 27.68 77.024 77.728 0 8.832-7.168 16-16 16z"/><path d="m352 66.88v144.064c18.592 6.592 32 24.192 32 45.056s-13.408 38.464-32 45.056v144.064c90.784-15.264 160-94.016 160-189.12s-69.216-173.856-160-189.12z"/><g/><g/><g/><g/><g/><g/><g/><g/><g/><g/><g/><g/><g/><g/><g/></svg>