<svg id="Capa_1" enable-background="new 0 0 480 480" viewBox="0 0 480 480" xmlns="http://www.w3.org/2000/svg"><path d="m448 16h-416c-17.632 0-32 14.336-32 32v384c0 17.664 14.368 32 32 32h416c17.664 0 32-14.336 32-32v-384c0-17.664-14.336-32-32-32zm-320 384h-64v-32h64zm0-64h-64v-32h64zm96 64h-64v-32h64zm0-64h-64v-32h64zm0-64h-64v-32h64zm0-64h-64v-32h64zm0-64h-64v-32h64zm96 256h-64v-32h64zm0-64h-64v-32h64zm0-64h-64v-32h64zm96 128h-64v-32h64zm0-64h-64v-32h64zm0-64h-64v-32h64zm0-64h-64v-32h64z"/><g/><g/><g/><g/><g/><g/><g/><g/><g/><g/><g/><g/><g/><g/><g/></svg>