<svg id="Capa_1" enable-background="new 0 0 512 512" viewBox="0 0 512 512" xmlns="http://www.w3.org/2000/svg"><path d="m208 128h-64c-8.832 0-16 7.168-16 16s7.168 16 16 16h64c8.832 0 16-7.168 16-16s-7.168-16-16-16z"/><path d="m208 192h-64c-8.832 0-16 7.168-16 16s7.168 16 16 16h64c8.832 0 16-7.168 16-16s-7.168-16-16-16z"/><path d="m480 0h-448c-17.632 0-32 14.368-32 32v288c0 17.664 14.368 32 32 32h208v72.288l-74.016 59.2c-6.88 5.536-8 15.584-2.496 22.496 3.168 3.968 7.84 6.016 12.512 6.016 3.488 0 7.04-1.152 9.984-3.488l70.016-56.032 69.984 55.968c2.976 2.336 6.496 3.488 10.016 3.488 4.672 0 9.344-2.048 12.512-6.016 5.504-6.912 4.416-16.96-2.496-22.496l-74.016-59.104v-72.32h208c17.664 0 32-14.336 32-32v-288c0-17.632-14.336-32-32-32zm-32 304c0 8.832-7.168 16-16 16h-176-176c-8.832 0-16-7.168-16-16v-240c0-6.272 3.68-11.968 9.376-14.56 58.848-26.752 127.872-22.176 182.624 11.456 54.752-33.6 123.68-38.208 182.624-11.456 5.728 2.592 9.376 8.288 9.376 14.56zm32 32v-16h.032z"/><path d="m336 192h-32c-8.832 0-16 7.168-16 16s7.168 16 16 16h32c8.832 0 16-7.168 16-16s-7.168-16-16-16z"/><path d="m368 128h-64c-8.832 0-16 7.168-16 16s7.168 16 16 16h64c8.832 0 16-7.168 16-16s-7.168-16-16-16z"/><g/><g/><g/><g/><g/><g/><g/><g/><g/><g/><g/><g/><g/><g/><g/></svg>