<svg id="Capa_1" enable-background="new 0 0 512.01 512.01" viewBox="0 0 512.01 512.01" xmlns="http://www.w3.org/2000/svg"><path d="m400.005 352.01c61.76 0 112-50.24 112-112 0-60.544-48.384-109.728-108.448-111.648-58.656-17.632-214.176-64.384-245.6-120.224-3.584-6.304-10.944-9.504-18.016-7.584-7.04 1.824-11.936 8.192-11.936 15.456v256c0 7.264 4.896 13.632 11.936 15.456 1.376.384 2.72.544 4.064.544 5.664 0 11.04-3.04 13.952-8.128 31.008-55.04 182.464-101.216 243.84-119.68 43.264.96 78.208 36.32 78.208 79.808 0 44.096-35.872 80-80 80h-32-288c-8.832 0-16 7.168-16 16v48h-16-32c-8.832 0-16 7.168-16 16s7.168 16 16 16h16v64h-16c-8.832 0-16 7.168-16 16s7.168 16 16 16h32 352 32c8.832 0 16-7.168 16-16s-7.168-16-16-16h-16v-64h16c8.832 0 16-7.168 16-16s-7.168-16-16-16h-32-16v-32z"/><g/><g/><g/><g/><g/><g/><g/><g/><g/><g/><g/><g/><g/><g/><g/></svg>