<svg id="Capa_1" enable-background="new 0 0 512 512" viewBox="0 0 512 512" xmlns="http://www.w3.org/2000/svg"><path d="m465.538 301.248-158.368-158.4c-18.656-18.72-49.184-18.752-67.904 0-18.72 18.72-18.72 49.152 0 67.872l158.4 158.4c9.056 9.056 21.12 14.048 33.952 14.048s24.864-4.992 33.952-14.048c18.688-18.72 18.688-49.152-.032-67.872z"/><path d="m209.634 295.2-49.248-240.96c-.928-30.08-25.664-54.24-55.968-54.24-30.88 0-56 25.12-56 56v8c-8.832 0-16 7.168-16 16s7.168 16 16 16h32c8.832 0 16-7.168 16-16s-7.168-16-16-16v-8c0-13.248 10.752-24 24-24 13.152 0 23.872 10.624 24 23.744v.576 103.68h-32c-8.832 0-16 7.168-16 16s7.168 16 16 16h32v32h-32c0-8.832-7.168-16-16-16s-16 7.168-16 16v32c0 8.832 7.168 16 16 16s16-7.168 16-16h32v150.08c0 27.616 11.232 54.912 31.04 75.104 20 19.584 47.296 30.816 74.88 30.816 37.408 0 72.256-19.968 90.88-52.032 16.48-28.032 33.376-50.496 50.048-68.096l-155.84-155.84c-4.256 17.024-7.584 36.704-9.792 59.168z"/><g/><g/><g/><g/><g/><g/><g/><g/><g/><g/><g/><g/><g/><g/><g/></svg>