<svg id="Capa_1" enable-background="new 0 0 512.024 512.024" viewBox="0 0 512.024 512.024" xmlns="http://www.w3.org/2000/svg"><path d="m507.336 276.242-22.624-22.624-226.304-226.272-22.624-22.656c-6.24-6.24-16.384-6.24-22.624 0s-6.24 16.384 0 22.624l11.328 11.328-135.776 135.776-11.328-11.328c-6.24-6.24-16.384-6.24-22.624 0s-6.24 16.384 0 22.624l22.624 22.624 90.528 90.528-158.528 158.528c-12.512 12.512-12.512 32.768 0 45.248s32.768 12.512 45.248 0l158.528-158.528 90.496 90.496 22.624 22.624c3.136 3.136 7.232 4.672 11.328 4.672s8.192-1.568 11.328-4.672c6.24-6.24 6.24-16.384 0-22.624l-11.296-11.296 135.776-135.744 11.328 11.328c3.136 3.136 7.232 4.672 11.328 4.672s8.192-1.568 11.328-4.672c6.176-6.272 6.176-16.416-.064-22.656zm-328.096-63.2c-4.096 0-8.192-1.568-11.328-4.672-6.24-6.24-6.24-16.384 0-22.624l67.872-67.872c6.24-6.24 16.384-6.24 22.624 0s6.24 16.384 0 22.624l-67.872 67.84c-3.136 3.136-7.2 4.704-11.296 4.704zm45.248 45.248c-4.096 0-8.192-1.568-11.328-4.672-6.24-6.24-6.24-16.384 0-22.624l67.872-67.904c6.24-6.24 16.384-6.24 22.624 0s6.24 16.384 0 22.624l-67.872 67.904c-3.104 3.104-7.2 4.672-11.296 4.672zm45.248 45.248c-4.096 0-8.192-1.568-11.328-4.672-6.24-6.24-6.24-16.384 0-22.624l67.872-67.904c6.24-6.24 16.384-6.24 22.624 0s6.24 16.384 0 22.624l-67.872 67.904c-3.104 3.136-7.2 4.672-11.296 4.672zm124.448-27.296-67.904 67.872c-3.136 3.136-7.232 4.672-11.328 4.672s-8.192-1.568-11.328-4.672c-6.24-6.24-6.24-16.384 0-22.624l67.904-67.872c6.24-6.24 16.384-6.24 22.624 0s6.304 16.384.032 22.624z"/><g/><g/><g/><g/><g/><g/><g/><g/><g/><g/><g/><g/><g/><g/><g/></svg>