<svg id="Capa_1" enable-background="new 0 0 512.008 512.008" viewBox="0 0 512.008 512.008" xmlns="http://www.w3.org/2000/svg"><path d="m512.008 90.532-22.624-67.872-67.872-22.656v45.248l-16.8 16.8-9.376-9.376c-6.24-6.24-16.384-6.24-22.624 0s-6.24 16.384 0 22.624l9.376 9.376-94.176 94.176-.096-.096c-1.152-1.12-2.464-2.08-3.872-2.816-28.256-14.88-60.96-18.784-91.968-10.976-5.792 1.44-10.304 6.016-11.68 11.808-3.968 16.608-12.544 31.904-24.928 44.256-2.304 2.336-5.152 4.64-8.704 7.232-10.656 8.736-22.56 14.656-35.84 17.696-12.416 3.264-25.472 3.84-37.6 1.664-4.128-.8-8.384.16-11.84 2.528-6.848 4.672-13.344 10.048-19.264 16-56.16 56.192-56.16 147.552 0 203.744 28.096 28.096 64.992 42.112 101.888 42.112s73.792-14.016 101.888-42.112c5.952-5.952 11.328-12.416 16-19.296 2.368-3.424 3.264-7.68 2.528-11.808-2.176-12.192-1.6-25.184 1.76-38.08 2.912-12.768 8.832-24.672 18.112-36.064 2.08-2.816 4.352-5.696 6.72-8.032 12.352-12.352 27.648-20.928 44.224-24.864 5.824-1.376 10.368-5.888 11.84-11.68 7.744-31.072 3.84-63.712-11.008-91.968-.736-1.44-1.696-2.72-2.848-3.872l-.096-.096 94.176-94.176 9.376 9.376c3.136 3.104 7.232 4.672 11.328 4.672s8.192-1.568 11.328-4.672c6.24-6.24 6.24-16.384 0-22.624l-9.376-9.376 16.8-16.8h45.248zm-340.672 336.8c-3.136 3.104-7.232 4.672-11.328 4.672s-8.192-1.568-11.328-4.672l-64-64c-6.24-6.24-6.24-16.384 0-22.624s16.384-6.24 22.624 0l64 64c6.272 6.24 6.272 16.352.032 22.624z"/><g/><g/><g/><g/><g/><g/><g/><g/><g/><g/><g/><g/><g/><g/><g/></svg>