<svg id="Capa_1" enable-background="new 0 0 512 512" viewBox="0 0 512 512" xmlns="http://www.w3.org/2000/svg"><path d="m400 128c-44.128 0-80 35.904-80 80v192c0 44.128-35.904 80-80 80h-32c-26.464 0-48-21.536-48-48v-17.632c36.48-7.424 64-39.744 64-78.368v-48h16c8.832 0 16-7.168 16-16v-64c0-8.832-7.168-16-16-16h-48v-144c0-26.464-21.536-48-48-48s-48 21.536-48 48v144h-48c-8.832 0-16 7.168-16 16v64c0 8.832 7.168 16 16 16h16v48c0 38.656 27.52 70.944 64 78.368v17.632c0 44.128 35.904 80 80 80h32c61.76 0 112-50.24 112-112v-192c0-26.464 21.536-48 48-48s48 21.536 48 48v96c0 8.832 7.168 16 16 16s16-7.168 16-16v-96c0-44.096-35.872-80-80-80z"/><g/><g/><g/><g/><g/><g/><g/><g/><g/><g/><g/><g/><g/><g/><g/></svg>