<svg id="Capa_1" enable-background="new 0 0 480 480" viewBox="0 0 480 480" xmlns="http://www.w3.org/2000/svg"><path d="m192 160c0-20.832 13.408-38.432 32-45.056v-98.944h-96v226.944c18.592 6.624 32 24.224 32 45.056s-13.408 38.432-32 45.056v130.944h96v-258.944c-18.592-6.624-32-24.224-32-45.056z"/><path d="m64 288c0-20.832 13.408-38.432 32-45.056v-226.944h-64c-17.632 0-32 14.368-32 32v384c0 17.664 14.368 32 32 32h64v-130.944c-18.592-6.624-32-24.224-32-45.056z"/><path d="m320 320c0-20.832 13.408-38.432 32-45.056v-258.944h-96v98.944c18.592 6.624 32 24.224 32 45.056s-13.408 38.432-32 45.056v258.944h96v-98.944c-18.592-6.624-32-24.224-32-45.056z"/><path d="m448 16h-64v258.944c18.592 6.624 32 24.224 32 45.056s-13.408 38.432-32 45.056v98.944h64c17.664 0 32-14.336 32-32v-384c0-17.632-14.336-32-32-32z"/><g/><g/><g/><g/><g/><g/><g/><g/><g/><g/><g/><g/><g/><g/><g/></svg>