<svg id="Capa_1" enable-background="new 0 0 512 512" viewBox="0 0 512 512" xmlns="http://www.w3.org/2000/svg"><path d="m144.003 464c0 26.56 21.44 48 48 48s48-21.44 48-48v-16h-96z"/><path d="m112.003 0c-34.24 0-66.56 11.84-90.56 33.28-3.52 2.88-5.44 7.36-5.44 11.84v133.76c0 4.48 1.92 8.96 5.44 11.84 31.68 28.16 79.68 39.68 122.56 29.76v195.52h96v-304c0-61.76-57.28-112-128-112zm-47.36 128c-8.832 0-16.16-7.168-16.16-16s7.008-16 15.84-16h.32c8.832 0 16 7.168 16 16s-7.168 16-16 16zm95.36 0c-8.832 0-16-7.168-16-16s-7.168-16-16-16-16-7.168-16-16 7.168-16 16-16c26.464 0 48 21.536 48 48 0 8.832-7.168 16-16 16z"/><path d="m487.171 417.696-67.392-33.696 67.36-33.696c5.088-2.56 8.48-7.616 8.8-13.312s-2.336-11.168-7.104-14.304l-96-64c-4.928-3.264-11.264-3.584-16.448-.8s-8.384 8.192-8.384 14.112v86.112l-72.832-36.448c-7.904-3.904-17.504-.704-21.472 7.168-3.968 7.904-.736 17.504 7.168 21.472l67.36 33.696-67.36 33.696c-7.904 3.968-11.104 13.568-7.168 21.472 3.968 7.904 13.536 11.136 21.472 7.168l72.832-36.448v86.112c0 5.92 3.264 11.328 8.448 14.08 2.368 1.28 4.96 1.92 7.552 1.92 3.104 0 6.176-.896 8.864-2.688l96-64c4.736-3.168 7.424-8.64 7.104-14.304s-3.712-10.752-8.8-13.312zm-87.168-115.776 48.192 32.128-48.192 24.064zm0 164.16v-56.224l48.192 24.096z"/><g/><g/><g/><g/><g/><g/><g/><g/><g/><g/><g/><g/><g/><g/><g/></svg>