<svg id="Capa_1" enable-background="new 0 0 480 480" viewBox="0 0 480 480" xmlns="http://www.w3.org/2000/svg"><path d="m416 0h-352c-8.832 0-16 7.168-16 16v32c0 8.832 7.168 16 16 16h352c8.832 0 16-7.168 16-16v-32c0-8.832-7.168-16-16-16z"/><path d="m320.448 327.904c51.36-33.696 91.648-106.048 94.912-231.904h-350.72c3.328 127.168 44.384 199.776 96.48 233.056-1.184 44.16-11.776 88.192-31.456 127.84-2.464 4.96-2.176 10.848.736 15.552 2.912 4.672 8.064 7.552 13.6 7.552h193.6c5.536 0 10.656-2.848 13.6-7.52 2.912-4.704 3.2-10.56.736-15.52-19.712-40.128-30.304-84.544-31.488-129.056z"/><g/><g/><g/><g/><g/><g/><g/><g/><g/><g/><g/><g/><g/><g/><g/></svg>