<svg id="Capa_1" enable-background="new 0 0 480 480" viewBox="0 0 480 480" xmlns="http://www.w3.org/2000/svg"><path d="m448 48h-416c-17.632 0-32 14.368-32 32v320c0 17.664 14.368 32 32 32h416c17.664 0 32-14.336 32-32v-320c0-17.632-14.336-32-32-32zm-304 224c8.832 0 16-7.168 16-16v-176h32v176c0 8.832 7.168 16 16 16h16v128h-96v-128zm112 0h16c8.832 0 16-7.168 16-16v-176h32v176c0 8.832 7.168 16 16 16h16v128h-96zm-224-192h32v176c0 8.832 7.168 16 16 16h16v128h-64zm416 336v-16h-64v-128h16c8.832 0 16-7.168 16-16v-176h32v320h.032z"/><g/><g/><g/><g/><g/><g/><g/><g/><g/><g/><g/><g/><g/><g/><g/></svg>