<svg id="Capa_1" enable-background="new 0 0 512 512" viewBox="0 0 512 512" xmlns="http://www.w3.org/2000/svg"><circle cx="160" cy="320.021" r="64"/><path d="m480 160.021h-361.056l254.752-97.056c8.288-3.136 12.416-12.384 9.248-20.672-3.136-8.288-12.384-12.416-20.64-9.248l-336 128c-.096.064-.16.128-.256.192-14.688 2.88-26.048 15.264-26.048 30.784v256c0 17.664 14.368 32 32 32h448c17.664 0 32-14.336 32-32v-256c0-17.632-14.336-32-32-32zm-320 256c-52.928 0-96-43.072-96-96s43.072-96 96-96 96 43.072 96 96-43.072 96-96 96zm288 0h-128v-32h128zm0-64h-128v-32h128zm0-64h-128v-32h128z"/><g/><g/><g/><g/><g/><g/><g/><g/><g/><g/><g/><g/><g/><g/><g/></svg>