<svg id="Capa_1" enable-background="new 0 0 512 512" viewBox="0 0 512 512" xmlns="http://www.w3.org/2000/svg"><path d="m256 192c35.296 0 64-28.704 64-64v-64c0-35.296-28.704-64-64-64s-64 28.704-64 64v64c0 35.296 28.704 64 64 64z"/><path d="m176 352c-26.464 0-48 21.536-48 48v64c0 26.464 21.536 48 48 48s48-21.536 48-48v-64c0-26.464-21.536-48-48-48zm16 112c0 8.8-7.168 16-16 16s-16-7.2-16-16v-64c0-8.8 7.168-16 16-16s16 7.2 16 16z"/><path d="m368 352c-8.832 0-16 7.168-16 16v60.224l-33.696-67.36c-3.328-6.624-10.624-10.304-18.016-8.416-7.2 1.664-12.288 8.16-12.288 15.552v128c0 8.832 7.168 16 16 16s16-7.168 16-16v-60.224l33.696 67.36c2.752 5.536 8.32 8.864 14.304 8.864 1.216 0 2.432-.128 3.68-.448 7.232-1.664 12.32-8.16 12.32-15.552v-128c0-8.832-7.168-16-16-16z"/><path d="m368 96c-8.832 0-16 7.168-16 16v16c0 52.928-43.072 96-96 96s-96-43.072-96-96v-16c0-8.832-7.168-16-16-16s-16 7.168-16 16v16c0 65.088 49.024 118.4 112 126.368v49.632c0 8.832 7.168 16 16 16s16-7.168 16-16v-49.632c62.976-7.968 112-61.28 112-126.368v-16c0-8.832-7.168-16-16-16z"/><g/><g/><g/><g/><g/><g/><g/><g/><g/><g/><g/><g/><g/><g/><g/></svg>