<svg id="Capa_1" enable-background="new 0 0 412.483 412.483" viewBox="0 0 412.483 412.483" xmlns="http://www.w3.org/2000/svg"><path d="m330.79 96.387-108.544 24.128v-63.2l115.456-25.696c8.64-1.92 14.048-10.464 12.16-19.104-1.92-8.608-10.304-13.984-19.104-12.16l-128 28.48c-7.296 1.664-12.512 8.16-12.512 15.648v253.12c-13.408-8.128-29.92-13.12-48-13.12-44.096 0-80 28.704-80 64s35.904 64 80 64 80-28.704 80-64v-195.168l115.456-25.696c8.64-1.92 14.048-10.464 12.16-19.104-1.888-8.608-10.304-13.984-19.072-12.128z"/><g/><g/><g/><g/><g/><g/><g/><g/><g/><g/><g/><g/><g/><g/><g/></svg>