<svg id="Capa_1" enable-background="new 0 0 512 512" viewBox="0 0 512 512" xmlns="http://www.w3.org/2000/svg"><path d="m416 0h-320c-17.632 0-32 14.368-32 32v448c0 17.664 14.368 32 32 32h320c17.664 0 32-14.336 32-32v-448c0-17.632-14.368-32-32-32zm-159.68 63.68c35.296 0 64 28.704 64 64s-28.704 64-64 64-64-28.704-64-64 28.704-64 64-64zm-127.68-16h.32c8.832 0 16 7.168 16 16s-7.168 16-16 16-16.16-7.168-16.16-16 7.008-16 15.84-16zm.32 416c-8.832 0-16.16-7.168-16.16-16s7.008-16 15.84-16h.32c8.832 0 16 7.168 16 16s-7.168 16-16 16zm127.36-16c-61.76 0-112-50.24-112-112s50.24-112 112-112 112 50.24 112 112-50.24 112-112 112zm128.64 16c-8.8 0-16.16-7.168-16.16-16s7.008-16 15.84-16h.32c8.832 0 16 7.168 16 16s-7.168 16-16 16zm0-384c-8.8 0-16.16-7.168-16.16-16s7.008-16 15.84-16h.32c8.832 0 16 7.168 16 16s-7.168 16-16 16z"/><g/><g/><g/><g/><g/><g/><g/><g/><g/><g/><g/><g/><g/><g/><g/></svg>