<svg id="Capa_1" enable-background="new 0 0 512 512" viewBox="0 0 512 512" xmlns="http://www.w3.org/2000/svg"><path d="m512 256c0-39.424-28.704-72.064-66.304-78.624 21.728-31.296 18.912-74.624-8.8-102.304-27.648-27.68-70.944-30.496-102.304-8.8-6.528-37.536-39.168-66.272-78.592-66.272s-72.064 28.736-78.624 66.304c-31.296-21.76-74.592-18.912-102.272 8.8-27.712 27.648-30.528 70.944-8.8 102.272-37.568 6.56-66.304 39.2-66.304 78.624s28.704 72.064 66.272 78.624c-21.696 31.328-18.88 74.624 8.8 102.304 15.52 15.52 35.968 23.296 56.448 23.296 16.064 0 32.064-4.96 45.824-14.496 6.592 37.568 39.232 66.272 78.656 66.272s72.064-28.704 78.624-66.272c13.76 9.536 29.76 14.464 45.824 14.464 20.512 0 40.928-7.744 56.48-23.296 27.648-27.648 30.496-70.944 8.8-102.304 37.568-6.528 66.272-39.168 66.272-78.592zm-97.728-158.272c16.032 16 17.376 40.416 5.824 59.008-16.064-26.528-38.336-48.768-64.864-64.864 18.656-11.52 43.072-10.176 59.04 5.856zm-158.272 286.272c-70.592 0-128-57.408-128-128s57.408-128 128-128 128 57.408 128 128-57.408 128-128 128zm0-352c23.04 0 42.304 16.32 46.912 38.016-15.04-3.776-30.688-6.016-46.912-6.016s-31.872 2.24-46.912 6.016c4.608-21.696 23.872-38.016 46.912-38.016zm-158.272 65.728c16-15.968 40.416-17.344 59.008-5.824-26.528 16.064-48.768 38.304-64.864 64.832-11.52-18.624-10.176-43.008 5.856-59.008zm-65.728 158.272c0-23.04 16.32-42.304 38.016-46.912-3.776 15.04-6.016 30.688-6.016 46.912s2.24 31.872 6.016 46.912c-21.696-4.608-38.016-23.872-38.016-46.912zm65.728 158.272c-16-16.032-17.376-40.416-5.856-59.04 16.064 26.528 38.336 48.768 64.864 64.864-18.656 11.552-43.008 10.208-59.008-5.824zm158.272 65.728c-23.04 0-42.304-16.32-46.912-38.016 15.04 3.776 30.688 6.016 46.912 6.016s31.872-2.24 46.912-6.016c-4.608 21.696-23.872 38.016-46.912 38.016zm158.272-65.728c-16.032 16.032-40.416 17.344-59.04 5.856 26.528-16.064 48.8-38.336 64.864-64.864 11.552 18.624 10.176 43.008-5.824 59.008zm27.712-111.36c3.776-15.04 6.016-30.688 6.016-46.912s-2.24-31.872-6.016-46.912c21.696 4.608 38.016 23.872 38.016 46.912s-16.32 42.304-38.016 46.912z"/><g/><g/><g/><g/><g/><g/><g/><g/><g/><g/><g/><g/><g/><g/><g/></svg>