<svg id="Capa_1" enable-background="new 0 0 512 512" viewBox="0 0 512 512" xmlns="http://www.w3.org/2000/svg"><path d="m512 176.004h-176-32-32c-61.76 0-112 50.24-112 112s50.24 112 112 112h64c61.76 0 112-50.24 112-112 0-17.248-4.256-33.408-11.232-48h75.232zm-176 160h-64c-26.464 0-48-21.536-48-48s21.536-48 48-48h32 32c26.464 0 48 21.536 48 48s-21.536 48-48 48z"/><path d="m186.304 172.964c-62.848-22.368-118.464-63.904-157.28-118.272-4.032-5.664-11.264-8.032-17.92-5.952-6.592 2.144-11.104 8.32-11.104 15.264v384c0 6.976 4.512 13.12 11.136 15.264 1.6.48 3.232.736 4.864.736 5.088 0 9.984-2.4 13.024-6.72 30.24-42.4 70.88-77.12 117.056-100.832-11.168-20.448-18.08-43.552-18.08-68.448 0-47.2 23.136-88.768 58.304-115.04z"/><g/><g/><g/><g/><g/><g/><g/><g/><g/><g/><g/><g/><g/><g/><g/></svg>