<svg id="Capa_1" enable-background="new 0 0 512.008 512.008" viewBox="0 0 512.008 512.008" xmlns="http://www.w3.org/2000/svg"><path d="m507.328 163.08c-6.24-6.24-16.384-6.24-22.624 0l-147.072 147.072c-37.44 37.44-98.368 37.376-135.776 0-37.44-37.44-37.44-98.336 0-135.776l147.04-147.072c6.24-6.24 6.24-16.384 0-22.624s-16.384-6.24-22.624 0l-147.04 147.072c-46.016 46.016-49.056 118.4-10.176 168.576l-72.736 72.768c-9.536-5.632-20.48-9.088-32.32-9.088-35.296 0-64 28.704-64 64s28.704 64 64 64 64-28.704 64-64c0-11.84-3.456-22.784-9.056-32.288l72.736-72.768c22.976 17.792 50.368 27.264 78.048 27.264 32.768 0 65.536-12.48 90.528-37.408l147.072-147.072c6.24-6.272 6.24-16.384 0-22.656zm-443.328 316.928c-17.632 0-32-14.336-32-32s14.368-32 32-32c8.8 0 16.768 3.584 22.56 9.344.032.032.032.032.032.064 0 0 .032 0 .032.032 5.792 5.792 9.376 13.76 9.376 22.56 0 17.664-14.368 32-32 32z"/><g/><g/><g/><g/><g/><g/><g/><g/><g/><g/><g/><g/><g/><g/><g/></svg>