<svg id="Capa_1" enable-background="new 0 0 512 512" viewBox="0 0 512 512" xmlns="http://www.w3.org/2000/svg"><path d="m320 160h48v-32h-48c-8.832 0-16-7.168-16-16s7.168-16 16-16h46.368c-7.84-54.144-54.112-96-110.368-96s-102.528 41.856-110.368 96h46.368c8.832 0 16 7.168 16 16s-7.168 16-16 16h-48v32h48c8.832 0 16 7.168 16 16s-7.168 16-16 16h-48v32h224v-32h-48c-8.832 0-16-7.168-16-16s7.168-16 16-16z"/><path d="m366.4 256h-220.8c7.072 48.96 45.536 87.456 94.4 94.528v97.472h-16c-26.464 0-48 21.536-48 48v16h160v-16c0-26.464-21.536-48-48-48h-16v-97.472c48.864-7.072 87.328-45.568 94.4-94.528z"/><g/><g/><g/><g/><g/><g/><g/><g/><g/><g/><g/><g/><g/><g/><g/></svg>