<svg id="Capa_1" enable-background="new 0 0 480 480" viewBox="0 0 480 480" xmlns="http://www.w3.org/2000/svg"><path d="m464 80h-48v-48c0-8.832-7.168-16-16-16h-64c-8.832 0-16 7.168-16 16v48h-32v-48c0-8.832-7.168-16-16-16h-64c-8.832 0-16 7.168-16 16v48h-32v-48c0-8.832-7.168-16-16-16h-64c-8.832 0-16 7.168-16 16v48h-48c-8.832 0-16 7.168-16 16v32c0 8.832 7.168 16 16 16h48v304c0 8.832 7.168 16 16 16h64c8.832 0 16-7.168 16-16v-304h32v208c0 8.832 7.168 16 16 16h64c8.832 0 16-7.168 16-16v-208h32v112c0 8.832 7.168 16 16 16h64c8.832 0 16-7.168 16-16v-112h48c8.832 0 16-7.168 16-16v-32c0-8.832-7.168-16-16-16z"/><g/><g/><g/><g/><g/><g/><g/><g/><g/><g/><g/><g/><g/><g/><g/></svg>